<?xml version="1.0" encoding="utf-8"?>
<!-- Generator: Adobe Illustrator 15.0.2, SVG Export Plug-In . SVG Version: 6.00 Build 0)  -->
<!DOCTYPE svg PUBLIC "-//W3C//DTD SVG 1.1//EN" "http://www.w3.org/Graphics/SVG/1.1/DTD/svg11.dtd">
<svg version="1.1" id="Layer_1" xmlns="http://www.w3.org/2000/svg" xmlns:xlink="http://www.w3.org/1999/xlink" x="0px" y="0px"
	 width="14px" height="13.977px" viewBox="0 120.5 14 13.977" enable-background="new 0 120.5 14 13.977" xml:space="preserve">
<path fill="#FFFFFF" d="M1.451,120.5h11.076c1.036,0,1.474,0.438,1.474,1.451v11.076c0,0.967-0.438,1.451-1.474,1.451H8.727v-4.559
	h1.796v-2.188H8.727v-1.451c0-0.438,0.092-0.875,0.829-0.875h0.967v-2.049H8.474c-1.451,0-2.21,0.737-2.21,2.049v2.326H4.79v2.188
	h1.474v4.559H1.451c-0.944,0-1.451-0.483-1.451-1.451v-11.076C0,120.938,0.506,120.5,1.451,120.5z"/>
</svg>
