<?xml version="1.0" encoding="utf-8"?>
<!-- Generator: Adobe Illustrator 15.0.2, SVG Export Plug-In . SVG Version: 6.00 Build 0)  -->
<!DOCTYPE svg PUBLIC "-//W3C//DTD SVG 1.1//EN" "http://www.w3.org/Graphics/SVG/1.1/DTD/svg11.dtd">
<svg version="1.1" id="Layer_1" xmlns="http://www.w3.org/2000/svg" xmlns:xlink="http://www.w3.org/1999/xlink" x="0px" y="0px"
	 width="760px" height="1000px" viewBox="0 0 760 1000" enable-background="new 0 0 760 1000" xml:space="preserve">
<path fill="#FFFFFF" d="M78.75,120.5H680c56.25,0,80,23.75,80,78.75V800.5c0,52.5-23.75,78.75-80,78.75H473.75v-247.5h97.5V513
	h-97.5v-78.75c0-23.75,5-47.5,45-47.5h52.5V275.5H460c-78.75,0-120,40-120,111.25V513h-80v118.75h80v247.5H78.75
	C27.5,879.25,0,853,0,800.5V199.25C0,144.25,27.5,120.5,78.75,120.5z"/>
</svg>
