<?xml version="1.0" encoding="utf-8"?>
<!-- Generator: Adobe Illustrator 15.0.2, SVG Export Plug-In . SVG Version: 6.00 Build 0)  -->
<!DOCTYPE svg PUBLIC "-//W3C//DTD SVG 1.1//EN" "http://www.w3.org/Graphics/SVG/1.1/DTD/svg11.dtd">
<svg version="1.1" id="Layer_1" xmlns="http://www.w3.org/2000/svg" xmlns:xlink="http://www.w3.org/1999/xlink" x="0px" y="0px"
	 width="14px" height="12.576px" viewBox="3.437 7.679 14 12.576" enable-background="new 3.437 7.679 14 12.576"
	 xml:space="preserve">
<g>
	<path fill="#FFFFFF" d="M17.145,12.786h-2.111v-2.111c0-0.16-0.131-0.291-0.292-0.291h-0.601c-0.162,0-0.292,0.131-0.292,0.291
		v2.111h-2.111c-0.161,0-0.292,0.131-0.292,0.292v0.601c0,0.161,0.131,0.292,0.292,0.292h2.111v2.111
		c0,0.162,0.131,0.292,0.292,0.292h0.601c0.161,0,0.292-0.13,0.292-0.292v-2.112h2.111c0.161,0,0.292-0.13,0.292-0.292v-0.601
		C17.437,12.917,17.306,12.786,17.145,12.786z"/>
	<path fill="#FFFFFF" d="M10.052,14.637c-0.444-0.314-0.848-0.775-0.854-0.918c0-0.258,0.023-0.38,0.602-0.832
		c0.748-0.585,1.16-1.355,1.16-2.169c0-0.738-0.226-1.393-0.609-1.854h0.298c0.062,0,0.123-0.019,0.171-0.055l0.831-0.602
		c0.103-0.074,0.146-0.206,0.107-0.326c-0.04-0.12-0.151-0.202-0.277-0.202H7.764c-0.406,0-0.819,0.072-1.224,0.211
		c-1.353,0.466-2.3,1.62-2.3,2.804c0,1.678,1.299,2.949,3.037,2.989c-0.034,0.134-0.052,0.264-0.052,0.393
		c0,0.258,0.065,0.503,0.2,0.74c-0.016,0-0.03,0-0.048,0c-1.656,0-3.15,0.812-3.717,2.021c-0.148,0.313-0.223,0.632-0.223,0.945
		c0,0.306,0.078,0.6,0.232,0.875c0.357,0.638,1.122,1.133,2.158,1.394c0.533,0.135,1.107,0.205,1.704,0.205
		c0.536,0,1.047-0.069,1.518-0.206c1.472-0.427,2.424-1.511,2.424-2.762C11.473,16.088,11.087,15.369,10.052,14.637z M5.361,17.385
		c0-0.873,1.109-1.639,2.374-1.639h0.034c0.275,0.004,0.543,0.044,0.796,0.122c0.086,0.06,0.169,0.117,0.25,0.171
		c0.586,0.4,0.973,0.663,1.08,1.085c0.026,0.106,0.039,0.213,0.039,0.316c0,1.087-0.812,1.639-2.411,1.639
		C6.311,19.078,5.361,18.335,5.361,17.385z M6.511,9.135c0.198-0.226,0.457-0.345,0.747-0.345l0.033,0
		c0.821,0.024,1.606,0.939,1.75,2.04c0.081,0.615-0.055,1.195-0.366,1.548c-0.198,0.226-0.453,0.345-0.755,0.345c0,0,0,0,0,0H7.906
		c-0.803-0.025-1.606-0.974-1.75-2.073C6.076,10.036,6.206,9.484,6.511,9.135z"/>
</g>
</svg>
