<?xml version="1.0" encoding="utf-8"?>
<!-- Generator: Adobe Illustrator 15.0.2, SVG Export Plug-In . SVG Version: 6.00 Build 0)  -->
<!DOCTYPE svg PUBLIC "-//W3C//DTD SVG 1.1//EN" "http://www.w3.org/Graphics/SVG/1.1/DTD/svg11.dtd">
<svg version="1.1" id="Layer_1" xmlns="http://www.w3.org/2000/svg" xmlns:xlink="http://www.w3.org/1999/xlink" x="0px" y="0px"
	 width="56.693px" height="56.693px" viewBox="0 0 56.693 56.693" enable-background="new 0 0 56.693 56.693" xml:space="preserve">
<g>
	<path fill="#FFFFFF" d="M52.218,25.852h-7.512v-7.512c0-0.571-0.465-1.037-1.037-1.037H41.53c-0.576,0-1.041,0.466-1.041,1.037
		v7.512h-7.512c-0.572,0-1.039,0.467-1.039,1.041v2.139c0,0.574,0.467,1.039,1.039,1.039h7.512v7.514
		c0,0.574,0.465,1.039,1.041,1.039h2.139c0.572,0,1.037-0.465,1.037-1.039V30.07h7.512c0.572,0,1.039-0.465,1.039-1.039v-2.139
		C53.257,26.318,52.79,25.852,52.218,25.852z"/>
	<path fill="#FFFFFF" d="M26.974,32.438c-1.58-1.119-3.018-2.76-3.041-3.266c0-0.918,0.082-1.355,2.141-2.961
		c2.662-2.084,4.128-4.822,4.128-7.719c0-2.625-0.802-4.957-2.167-6.595h1.059c0.221,0,0.436-0.068,0.609-0.196l2.955-2.141
		c0.367-0.265,0.521-0.732,0.381-1.161c-0.141-0.428-0.537-0.72-0.988-0.72H18.835c-1.444,0-2.915,0.255-4.355,0.751
		c-4.816,1.659-8.186,5.765-8.186,9.978c0,5.969,4.624,10.493,10.807,10.635c-0.121,0.475-0.184,0.939-0.184,1.396
		c0,0.92,0.233,1.791,0.713,2.633c-0.056,0-0.108,0-0.17,0c-5.892,0-11.21,2.891-13.229,7.193c-0.526,1.117-0.794,2.25-0.794,3.365
		c0,1.087,0.277,2.133,0.826,3.113c1.269,2.271,3.992,4.031,7.677,4.961c1.899,0.48,3.942,0.727,6.063,0.727
		c1.906,0,3.725-0.246,5.403-0.732c5.238-1.521,8.625-5.377,8.625-9.828C32.032,37.602,30.659,35.045,26.974,32.438z M10.283,42.215
		c0-3.105,3.947-5.832,8.446-5.832h0.121c0.979,0.014,1.934,0.156,2.834,0.434c0.309,0.213,0.605,0.416,0.893,0.609
		c2.084,1.422,3.461,2.357,3.844,3.861c0.092,0.379,0.137,0.758,0.137,1.125c0,3.869-2.887,5.83-8.578,5.83
		C13.663,48.242,10.283,45.596,10.283,42.215z M14.377,12.858c0.703-0.803,1.624-1.229,2.658-1.229l0.117,0.002
		c2.921,0.086,5.716,3.343,6.229,7.258c0.289,2.19-0.197,4.253-1.301,5.509c-0.705,0.805-1.613,1.229-2.688,1.229c0,0,0,0-0.002,0
		h-0.049c-2.859-0.088-5.716-3.467-6.227-7.377C12.829,16.064,13.289,14.099,14.377,12.858z"/>
</g>
</svg>
