<?xml version="1.0" encoding="utf-8"?>
<!-- Generator: Adobe Illustrator 15.0.2, SVG Export Plug-In . SVG Version: 6.00 Build 0)  -->
<!DOCTYPE svg PUBLIC "-//W3C//DTD SVG 1.1//EN" "http://www.w3.org/Graphics/SVG/1.1/DTD/svg11.dtd">
<svg version="1.1" id="Layer_1" xmlns="http://www.w3.org/2000/svg" xmlns:xlink="http://www.w3.org/1999/xlink" x="0px" y="0px"
	 width="14px" height="11.392px" viewBox="20.1 64 14 11.392" enable-background="new 20.1 64 14 11.392" xml:space="preserve">
<path fill="#FFFFFF" d="M34.1,65.35c-0.516,0.228-1.068,0.382-1.649,0.454c0.593-0.356,1.05-0.919,1.264-1.59
	c-0.555,0.33-1.169,0.57-1.825,0.697C31.365,64.35,30.617,64,29.792,64c-1.587,0-2.872,1.288-2.872,2.875
	c0,0.225,0.024,0.445,0.074,0.655c-2.388-0.119-4.506-1.264-5.921-3.005c-0.246,0.424-0.389,0.92-0.389,1.445
	c0,0.997,0.51,1.878,1.282,2.395c-0.475-0.012-0.92-0.143-1.306-0.359c0,0.012,0,0.024,0,0.036c0,1.395,0.991,2.555,2.305,2.818
	c-0.24,0.065-0.495,0.101-0.756,0.101c-0.184,0-0.365-0.018-0.54-0.053c0.365,1.142,1.427,1.973,2.685,1.997
	c-0.982,0.771-2.222,1.231-3.569,1.231c-0.231,0-0.46-0.015-0.686-0.042c1.267,0.825,2.777,1.299,4.396,1.299
	c5.29,0,8.18-4.382,8.18-8.182c0-0.125-0.003-0.249-0.009-0.371C33.228,66.433,33.714,65.928,34.1,65.35z"/>
</svg>
